<svg xmlns="http://www.w3.org/2000/svg" width="880" height="386" viewBox="0 0 880 386" role="img" aria-labelledby="t d"><title id="t">JevBench v1.5.4: the four axes behind the score</title><desc id="d">Axis scores out of 100. Cygnet: intelligence 71.09, calibration 87.01, speed 90.97, cost 56.43; Jev 1.13.0: intelligence 72.0, calibration 88.03, speed 83.81, cost 54.73; Winnow-12B Q8: intelligence 74.43, calibration 84.07, speed 86.14, cost 56.56; GPT-6 Luna, low effort: intelligence 95.29, calibration 94.92, speed 73.2, cost 39.06.</desc><style>.serif{font-family:Georgia,'Iowan Old Style','Palatino Linotype','Book Antiqua',Palatino,serif}.sans{font-family:system-ui,-apple-system,'Segoe UI',Roboto,'Helvetica Neue',Arial,sans-serif}.mono{font-family:ui-monospace,SFMono-Regular,Menlo,Consolas,'Liberation Mono',monospace}text{font-variant-numeric:tabular-nums}.sky{fill:#f2f4f9}.surface{fill:#ffffff}.surface2{fill:#e9edf4}.line{fill:#d9dee8}.ink{fill:#141b2d}.ink2{fill:#46506a}.ink3{fill:#737c92}.gold{fill:#a26f00}.glow{fill:#8f6200}.slate{fill:#8590a6}.grid{fill:#141b2d17}.tint{fill:#a26f0014}</style><rect x="1" y="1" width="878.00" height="384" rx="14" fill="#ffffff" stroke="#d9dee8"/><text x="32" y="46" font-size="19" class="sans ink" font-weight="600">About a point behind Jev on Intelligence and Calibration, ahead on Speed and Cost</text><text x="32" y="72" font-size="13.5" class="sans ink2">JevBench v1.5.4 axis scores, 0 to 100, higher is better on each</text><text x="214" y="116" font-size="13" class="sans ink" font-weight="600">Intelligence</text><text x="372" y="116" font-size="13" class="sans ink" font-weight="600">Calibration</text><text x="530" y="116" font-size="13" class="sans ink" font-weight="600">Speed</text><text x="688" y="116" font-size="13" class="sans ink" font-weight="600">Cost</text><rect x="22" y="130" width="836.00" height="34" rx="6" fill="#a26f0014"/><text x="32" y="151" font-size="14" class="sans ink" font-weight="600">Cygnet</text><rect x="214" y="139" width="104.00" height="14" rx="0" fill="#e9edf4"/><rect x="214" y="139" width="73.93" height="14" rx="0" fill="#a26f00"/><text x="324" y="151" font-size="12.5" class="mono ink" font-weight="600">71.1</text><rect x="372" y="139" width="104.00" height="14" rx="0" fill="#e9edf4"/><rect x="372" y="139" width="90.49" height="14" rx="0" fill="#a26f00"/><text x="482" y="151" font-size="12.5" class="mono ink" font-weight="600">87.0</text><rect x="530" y="139" width="104.00" height="14" rx="0" fill="#e9edf4"/><rect x="530" y="139" width="94.61" height="14" rx="0" fill="#a26f00"/><text x="640" y="151" font-size="12.5" class="mono ink" font-weight="600">91.0</text><rect x="688" y="139" width="104.00" height="14" rx="0" fill="#e9edf4"/><rect x="688" y="139" width="58.69" height="14" rx="0" fill="#a26f00"/><text x="798" y="151" font-size="12.5" class="mono ink" font-weight="600">56.4</text><text x="32" y="189" font-size="14" class="sans ink2">Jev 1.13.0</text><rect x="214" y="177" width="104.00" height="14" rx="0" fill="#e9edf4"/><rect x="214" y="177" width="74.88" height="14" rx="0" fill="#8590a6"/><text x="324" y="189" font-size="12.5" class="mono ink2">72.0</text><rect x="372" y="177" width="104.00" height="14" rx="0" fill="#e9edf4"/><rect x="372" y="177" width="91.55" height="14" rx="0" fill="#8590a6"/><text x="482" y="189" font-size="12.5" class="mono ink2">88.0</text><rect x="530" y="177" width="104.00" height="14" rx="0" fill="#e9edf4"/><rect x="530" y="177" width="87.16" height="14" rx="0" fill="#8590a6"/><text x="640" y="189" font-size="12.5" class="mono ink2">83.8</text><rect x="688" y="177" width="104.00" height="14" rx="0" fill="#e9edf4"/><rect x="688" y="177" width="56.92" height="14" rx="0" fill="#8590a6"/><text x="798" y="189" font-size="12.5" class="mono ink2">54.7</text><text x="32" y="227" font-size="14" class="sans ink2">Winnow-12B Q8</text><rect x="214" y="215" width="104.00" height="14" rx="0" fill="#e9edf4"/><rect x="214" y="215" width="77.41" height="14" rx="0" fill="#8590a6"/><text x="324" y="227" font-size="12.5" class="mono ink2">74.4</text><rect x="372" y="215" width="104.00" height="14" rx="0" fill="#e9edf4"/><rect x="372" y="215" width="87.43" height="14" rx="0" fill="#8590a6"/><text x="482" y="227" font-size="12.5" class="mono ink2">84.1</text><rect x="530" y="215" width="104.00" height="14" rx="0" fill="#e9edf4"/><rect x="530" y="215" width="89.59" height="14" rx="0" fill="#8590a6"/><text x="640" y="227" font-size="12.5" class="mono ink2">86.1</text><rect x="688" y="215" width="104.00" height="14" rx="0" fill="#e9edf4"/><rect x="688" y="215" width="58.82" height="14" rx="0" fill="#8590a6"/><text x="798" y="227" font-size="12.5" class="mono ink2">56.6</text><text x="32" y="265" font-size="14" class="sans ink2">GPT-6 Luna, low effort</text><rect x="214" y="253" width="104.00" height="14" rx="0" fill="#e9edf4"/><rect x="214" y="253" width="99.10" height="14" rx="0" fill="#8590a6"/><text x="324" y="265" font-size="12.5" class="mono ink2">95.3</text><rect x="372" y="253" width="104.00" height="14" rx="0" fill="#e9edf4"/><rect x="372" y="253" width="98.72" height="14" rx="0" fill="#8590a6"/><text x="482" y="265" font-size="12.5" class="mono ink2">94.9</text><rect x="530" y="253" width="104.00" height="14" rx="0" fill="#e9edf4"/><rect x="530" y="253" width="76.13" height="14" rx="0" fill="#8590a6"/><text x="640" y="265" font-size="12.5" class="mono ink2">73.2</text><rect x="688" y="253" width="104.00" height="14" rx="0" fill="#e9edf4"/><rect x="688" y="253" width="40.62" height="14" rx="0" fill="#8590a6"/><text x="798" y="265" font-size="12.5" class="mono ink2">39.1</text><text x="32" y="324" font-size="12" class="sans ink3">The score is a harmonic mean, so the weakest axis weighs most: GPT-6 Luna out-reasons every row here,</text><text x="32" y="342" font-size="12" class="sans ink3">but its Cost axis of 39.1 holds its score to 40.48.</text><text x="32" y="364" font-size="12" class="sans ink3">Source: JevBench v1.5.4 aggregate results, benchmarkheaven.com, sha256 0cf210b76bf8…, retrieved 2026-09-30.</text></svg>
